<svg width="16" height="21" viewBox="0 0 16 21" fill="none" xmlns="http://www.w3.org/2000/svg">
<g clip-path="url(#clip0_866_1459)">
<path d="M8 0.5C6.36719 0.5 4.97656 1.54297 4.46484 3H3C1.62109 3 0.5 4.12109 0.5 5.5V18C0.5 19.3789 1.62109 20.5 3 20.5H13C14.3789 20.5 15.5 19.3789 15.5 18V5.5C15.5 4.12109 14.3789 3 13 3H11.5352C11.0234 1.54297 9.63281 0.5 8 0.5ZM8 3C8.33152 3 8.64946 3.1317 8.88388 3.36612C9.1183 3.60054 9.25 3.91848 9.25 4.25C9.25 4.58152 9.1183 4.89946 8.88388 5.13388C8.64946 5.3683 8.33152 5.5 8 5.5C7.66848 5.5 7.35054 5.3683 7.11612 5.13388C6.8817 4.89946 6.75 4.58152 6.75 4.25C6.75 3.91848 6.8817 3.60054 7.11612 3.36612C7.35054 3.1317 7.66848 3 8 3ZM12.4141 11.1641L7.41406 16.1641C7.04688 16.5312 6.45313 16.5312 6.08984 16.1641L3.58594 13.6641C3.21875 13.2969 3.21875 12.7031 3.58594 12.3398C3.95312 11.9766 4.54688 11.9727 4.91016 12.3398L6.74609 14.1758L11.0859 9.83594C11.4531 9.46875 12.0469 9.46875 12.4102 9.83594C12.7734 10.2031 12.7773 10.7969 12.4102 11.1602L12.4141 11.1641Z" fill="#EF4444"/>
</g>
<defs>
<clipPath id="clip0_866_1459">
<path d="M0.5 0.5H15.5V20.5H0.5V0.5Z" fill="white"/>
</clipPath>
</defs>
</svg>
