<svg width="18" height="21" viewBox="0 0 18 21" fill="none" xmlns="http://www.w3.org/2000/svg">
<g clip-path="url(#clip0_866_1418)">
<g clip-path="url(#clip1_866_1418)">
<path d="M8.74998 0.5C8.05858 0.5 7.49998 1.05859 7.49998 1.75V2.5C4.64842 3.07812 2.49998 5.60156 2.49998 8.625V9.35938C2.49998 11.1953 1.8242 12.9688 0.605453 14.3438L0.316391 14.668C-0.011734 15.0352 -0.0898591 15.5625 0.10936 16.0117C0.308578 16.4609 0.757797 16.75 1.24998 16.75H16.25C16.7422 16.75 17.1875 16.4609 17.3906 16.0117C17.5937 15.5625 17.5117 15.0352 17.1836 14.668L16.8945 14.3438C15.6758 12.9688 15 11.1992 15 9.35938V8.625C15 5.60156 12.8515 3.07812 9.99998 2.5V1.75C9.99998 1.05859 9.44139 0.5 8.74998 0.5ZM10.5195 19.7695C10.9883 19.3008 11.25 18.6641 11.25 18H8.74998H6.24998C6.24998 18.6641 6.5117 19.3008 6.98045 19.7695C7.4492 20.2383 8.08592 20.5 8.74998 20.5C9.41405 20.5 10.0508 20.2383 10.5195 19.7695Z" fill="#4B5563"/>
</g>
</g>
<defs>
<clipPath id="clip0_866_1418">
<rect width="17.5" height="20" fill="white" transform="translate(0 0.5)"/>
</clipPath>
<clipPath id="clip1_866_1418">
<path d="M0 0.5H17.5V20.5H0V0.5Z" fill="white"/>
</clipPath>
</defs>
</svg>
