<svg width="47" height="36" viewBox="0 0 47 36" fill="none" xmlns="http://www.w3.org/2000/svg">
<path d="M17.3058 19.4014V4.85591H23.1297C24.1998 4.85591 25.0923 5.01453 25.8073 5.33176C26.5222 5.649 27.0596 6.08934 27.4195 6.65279C27.7793 7.2115 27.9592 7.85544 27.9592 8.58461C27.9592 9.15279 27.8456 9.65231 27.6183 10.0832C27.3911 10.5093 27.0786 10.8597 26.6808 11.1343C26.2878 11.4042 25.838 11.596 25.3314 11.7096V11.8517C25.8854 11.8753 26.4038 12.0316 26.8868 12.3204C27.3745 12.6092 27.7698 13.0141 28.0729 13.5349C28.3759 14.051 28.5274 14.6665 28.5274 15.3815C28.5274 16.1533 28.3357 16.8422 27.9521 17.4482C27.5733 18.0496 27.0123 18.5254 26.2689 18.8758C25.5255 19.2262 24.6093 19.4014 23.5203 19.4014H17.3058ZM20.3811 16.8872H22.8882C23.7452 16.8872 24.3702 16.7238 24.7632 16.3971C25.1562 16.0657 25.3527 15.6253 25.3527 15.0761C25.3527 14.6736 25.2556 14.3185 25.0615 14.0107C24.8674 13.703 24.5904 13.4615 24.2305 13.2863C23.8754 13.1111 23.4517 13.0235 22.9592 13.0235H20.3811V16.8872ZM20.3811 10.9426H22.6609C23.0823 10.9426 23.4564 10.8692 23.7831 10.7224C24.1145 10.5709 24.375 10.3578 24.5644 10.0832C24.7585 9.80856 24.8555 9.47949 24.8555 9.09597C24.8555 8.5704 24.6685 8.14663 24.2945 7.82466C23.9251 7.50269 23.3996 7.34171 22.7178 7.34171H20.3811V10.9426Z" fill="#4477C4"/>
<path d="M1.04589 32.4014V22.2195H4.94361C5.67941 22.2195 6.29092 22.3356 6.77813 22.5676C7.26866 22.7963 7.6349 23.1095 7.87685 23.5072C8.12212 23.9049 8.24475 24.3557 8.24475 24.8595C8.24475 25.2738 8.16521 25.6284 8.00611 25.9234C7.84702 26.2151 7.63325 26.452 7.36478 26.6343C7.09631 26.8166 6.79636 26.9475 6.46492 27.0271V27.1265C6.82619 27.1464 7.17254 27.2574 7.50398 27.4596C7.83874 27.6585 8.11218 27.9402 8.3243 28.3048C8.53642 28.6694 8.64248 29.1102 8.64248 29.6272C8.64248 30.1542 8.51487 30.6282 8.25967 31.0491C8.00446 31.4667 7.61999 31.7965 7.10626 32.0384C6.59253 32.2804 5.94622 32.4014 5.16734 32.4014H1.04589ZM2.89035 30.8602H4.87401C5.54352 30.8602 6.02576 30.7326 6.32075 30.4774C6.61904 30.2188 6.76819 29.8874 6.76819 29.483C6.76819 29.1814 6.69361 28.9097 6.54447 28.6677C6.39532 28.4224 6.1832 28.2302 5.9081 28.091C5.63301 27.9485 5.30488 27.8772 4.92373 27.8772H2.89035V30.8602ZM2.89035 26.5498H4.71492C5.0331 26.5498 5.3198 26.4918 5.57501 26.3758C5.83022 26.2565 6.03074 26.0891 6.17657 25.8737C6.32572 25.6549 6.40029 25.3964 6.40029 25.0981C6.40029 24.7037 6.26109 24.3789 5.98268 24.1237C5.70758 23.8685 5.29825 23.7409 4.75469 23.7409H2.89035V26.5498ZM12.7915 22.2195V32.4014H10.9471V22.2195H12.7915ZM15.4889 32.4014V22.2195H17.3333V30.8552H21.8177V32.4014H15.4889ZM22.3723 23.7657V22.2195H30.4959V23.7657H27.3488V32.4014H25.5193V23.7657H22.3723ZM34.6064 22.2195V32.4014H32.7619V22.2195H34.6064ZM38.8449 22.2195L41.0871 25.9482H41.1666L43.4188 22.2195H45.5217L42.3847 27.3105L45.5715 32.4014H43.4337L41.1666 28.6975H41.0871L38.82 32.4014H36.6922L39.9088 27.3105L36.732 22.2195H38.8449Z" fill="#4477C4"/>
</svg>
