<svg width="24" height="21" viewBox="0 0 24 21" fill="none" xmlns="http://www.w3.org/2000/svg">
<g clip-path="url(#clip0_866_1439)">
<path d="M0.75 3.625C0.75 2.58984 1.58984 1.75 2.625 1.75H6.375C7.41016 1.75 8.25 2.58984 8.25 3.625V4.25H15.75V3.625C15.75 2.58984 16.5898 1.75 17.625 1.75H21.375C22.4102 1.75 23.25 2.58984 23.25 3.625V7.375C23.25 8.41016 22.4102 9.25 21.375 9.25H17.625C16.5898 9.25 15.75 8.41016 15.75 7.375V6.75H8.25V7.375C8.25 7.44141 8.24609 7.50781 8.23828 7.57031L11.375 11.75H15.125C16.1602 11.75 17 12.5898 17 13.625V17.375C17 18.4102 16.1602 19.25 15.125 19.25H11.375C10.3398 19.25 9.5 18.4102 9.5 17.375V13.625C9.5 13.5586 9.50391 13.4922 9.51172 13.4297L6.375 9.25H2.625C1.58984 9.25 0.75 8.41016 0.75 7.375V3.625Z" fill="#4477C4"/>
</g>
<defs>
<clipPath id="clip0_866_1439">
<path d="M0.75 0.5H23.25V20.5H0.75V0.5Z" fill="white"/>
</clipPath>
</defs>
</svg>
